<svg width="153" height="36" viewBox="0 0 153 36" fill="none" xmlns="http://www.w3.org/2000/svg">
  <!-- Icono circular -->
  <path d="M34.5035 10.8044L1.48274 25.1615C1.18349 24.4753 0.926995 23.7665 0.717746 23.0398L20.9946 14.2244C21.8406 13.8554 22.3469 13.0296 22.3469 12.1611C22.3469 11.8619 22.2861 11.5581 22.1601 11.2656C21.6651 10.1249 20.3399 9.60291 19.1991 10.0979L0.00674968 18.4431C0.00224971 18.2968 0 18.1483 0 17.9998C0 8.05943 8.05945 0 17.9999 0C19.9236 0 21.7776 0.301498 23.5146 0.861742L12.6449 5.58895C11.7989 5.95795 11.2927 6.78369 11.2927 7.65443C11.2927 7.95368 11.3534 8.25742 11.4794 8.54992C11.9744 9.68841 13.2997 10.2104 14.4404 9.71541L28.6918 3.51672C31.2141 5.3842 33.2323 7.89293 34.5035 10.8044Z" fill="#2F43D0"/>
  <path d="M22.5983 27.2723C22.5983 27.5716 22.6591 27.8753 22.7851 28.1678C23.2801 29.3063 24.6053 29.8306 25.746 29.3333L34.3162 25.6074C31.452 31.7453 25.2218 36 17.9993 36C12.2304 36 7.09366 33.2843 3.79968 29.0633L35.7765 15.1584C35.9227 16.0832 35.9992 17.0327 35.9992 18.0002C35.9992 18.6819 35.961 19.3547 35.8867 20.0162L23.9506 25.2069C23.1046 25.5759 22.5983 26.4038 22.5983 27.2723Z" fill="#2F43D0"/>
  <!-- S -->
  <path d="M53.0503 25.924C52.3641 25.924 51.6417 25.8801 50.8833 25.7923C50.1248 25.7045 49.5108 25.5874 49.0412 25.4411C48.2827 25.1924 47.9035 24.7754 47.9035 24.1902C47.9035 23.7658 48.057 23.4293 48.364 23.1806C48.6891 22.9172 49.1947 22.7856 49.881 22.7856C50.3505 22.7856 50.9194 22.8368 51.5876 22.9392C52.2557 23.0416 52.8427 23.0928 53.3483 23.0928C54.468 23.0928 55.2716 22.9758 55.7592 22.7417C56.2468 22.5076 56.4906 22.032 56.4906 21.3151C56.4906 20.8908 56.301 20.5323 55.9217 20.2397C55.5606 19.9471 54.8292 19.6691 53.7276 19.4057C51.723 18.9229 50.2692 18.323 49.3663 17.6061C48.4814 16.8892 48.0389 15.9601 48.0389 14.8188C48.0389 13.8239 48.3098 12.9826 48.8516 12.295C49.4114 11.5927 50.179 11.0586 51.1541 10.6928C52.1293 10.3271 53.24 10.1442 54.486 10.1442C55.9488 10.1442 57.1588 10.3051 58.1159 10.627C58.8744 10.8611 59.2536 11.2781 59.2536 11.878C59.2536 12.3023 59.0911 12.6461 58.7661 12.9095C58.459 13.1582 57.9624 13.2826 57.2762 13.2826C56.8247 13.2826 56.3371 13.246 55.8134 13.1728C55.2897 13.085 54.775 13.0411 54.2693 13.0411C53.4928 13.0411 52.9059 13.1509 52.5086 13.3704C52.1113 13.5898 51.9126 13.9556 51.9126 14.4677C51.9126 14.9359 52.1925 15.3602 52.7524 15.7406C53.3122 16.121 54.3416 16.4941 55.8405 16.8599C57.5561 17.2696 58.739 17.8256 59.3891 18.5279C60.0392 19.2155 60.3643 20.0934 60.3643 21.1615C60.3643 22.7124 59.7232 23.8975 58.441 24.7169C57.1769 25.5216 55.38 25.924 53.0503 25.924Z" fill="#101840" fill-opacity="0.8"/>
  <!-- I -->
  <path d="M67.1368 24.4528C67.1368 24.9502 66.9838 25.3241 66.6768 25.5729C66.3879 25.8069 65.9092 25.9234 65.2413 25.9235C63.9049 25.9235 63.2364 25.4331 63.2364 24.4528V17.3395L67.1368 15.6461V24.4528ZM65.1602 10.1442C66.4781 10.1443 67.1366 10.6339 67.1368 11.6139V12.5621L63.2364 14.2555V11.6139C63.2365 11.102 63.3904 10.7288 63.6973 10.4948C64.0044 10.2608 64.4923 10.1442 65.1602 10.1442Z" fill="#101840" fill-opacity="0.8"/>
  <!-- N -->
  <path d="M74.7517 24.4535C74.7517 25.4338 74.1197 25.924 72.8555 25.924C72.2415 25.924 71.7539 25.7996 71.3928 25.5509C71.0316 25.3021 70.851 24.9363 70.851 24.4535V15.8284C70.851 14.4531 71.0767 13.3557 71.5282 12.5364C71.9797 11.7024 72.7201 11.0952 73.7495 10.7148C74.7788 10.3344 76.1513 10.1442 77.8669 10.1442C80.1424 10.1442 81.858 10.5758 83.0138 11.439C84.1876 12.2876 84.7745 13.7508 84.7745 15.8284V24.4535C84.7745 25.4338 84.1425 25.924 82.8783 25.924C82.2643 25.924 81.7767 25.7996 81.4156 25.5509C81.0544 25.3021 80.8738 24.9363 80.8738 24.4535V15.8284C80.8738 14.7457 80.639 13.9775 80.1695 13.524C79.718 13.0558 78.9505 12.8217 77.8669 12.8217C77.0182 12.8217 76.368 12.9241 75.9166 13.1289C75.4651 13.3338 75.1581 13.6557 74.9955 14.0946C74.833 14.5335 74.7517 15.1115 74.7517 15.8284V24.4535Z" fill="#101840" fill-opacity="0.8"/>
  <!-- C -->
  <path d="M91.9649 18.1328C91.9649 19.8739 92.2267 21.1249 92.7505 21.8857C93.2742 22.6319 94.0507 23.005 95.0801 23.005C95.7302 23.005 96.2991 22.9684 96.7867 22.8953C97.2743 22.8075 97.7167 22.7636 98.114 22.7636C98.8364 22.7636 99.3601 22.888 99.6852 23.1367C100.01 23.3708 100.173 23.6781 100.173 24.0585C100.173 24.5559 99.947 24.9363 99.4955 25.1997C99.0621 25.4631 98.5023 25.646 97.816 25.7484C97.1479 25.8508 96.4616 25.902 95.7573 25.902C93.8069 25.902 92.2538 25.6094 91.0981 25.0241C89.9603 24.4389 89.1386 23.5756 88.633 22.4344C88.1454 21.2785 87.9016 19.8447 87.9016 18.1328C87.9016 16.421 88.1454 14.9725 88.633 13.7873C89.1386 12.5876 89.9603 11.6804 91.0981 11.0659C92.2538 10.4514 93.8069 10.1442 95.7573 10.1442C96.4616 10.1442 97.1479 10.1954 97.816 10.2978C98.5023 10.4002 99.0621 10.5831 99.4955 10.8465C99.947 11.1098 100.173 11.4902 100.173 11.9877C100.173 12.3535 100.01 12.6607 99.6852 12.9095C99.3601 13.1582 98.8364 13.2826 98.114 13.2826C97.7167 13.2826 97.2743 13.246 96.7867 13.1728C96.2991 13.085 95.7302 13.0411 95.0801 13.0411C93.8159 13.0411 92.9762 13.4581 92.5608 14.2921C92.1635 15.1115 91.9649 16.3917 91.9649 18.1328Z" fill="#101840" fill-opacity="0.8"/>
  <!-- O -->
  <path d="M109.29 25.924C107.719 25.924 106.383 25.6752 105.281 25.1778C104.179 24.6657 103.34 23.8317 102.762 22.6758C102.202 21.52 101.922 19.9544 101.922 17.9792C101.922 16.004 102.202 14.4457 102.762 13.3045C103.34 12.1633 104.179 11.3512 105.281 10.8684C106.383 10.3856 107.719 10.1442 109.29 10.1442C110.879 10.1442 112.216 10.3856 113.299 10.8684C114.401 11.3512 115.232 12.1633 115.791 13.3045C116.369 14.4457 116.658 16.004 116.658 17.9792C116.658 19.9544 116.369 21.52 115.791 22.6758C115.232 23.8317 114.401 24.6657 113.299 25.1778C112.216 25.6752 110.879 25.924 109.29 25.924ZM109.29 23.027C110.013 23.027 110.627 22.888 111.132 22.61C111.656 22.332 112.053 21.8272 112.324 21.0956C112.613 20.3641 112.758 19.3253 112.758 17.9792C112.758 16.6185 112.613 15.587 112.324 14.8847C112.053 14.1678 111.656 13.6849 111.132 13.4362C110.627 13.1728 110.013 13.0411 109.29 13.0411C108.586 13.0411 107.972 13.1728 107.448 13.4362C106.924 13.6849 106.518 14.1678 106.229 14.8847C105.958 15.587 105.823 16.6185 105.823 17.9792C105.823 19.3253 105.958 20.3641 106.229 21.0956C106.518 21.8272 106.924 22.332 107.448 22.61C107.972 22.888 108.586 23.027 109.29 23.027Z" fill="#101840" fill-opacity="0.8"/>
  <!-- punto -->
  <circle cx="123.985" cy="18.5976" r="1.69069" fill="#101840" fill-opacity="0.8"/>
  <!-- I -->
  <path d="M135.212 24.4528C135.212 24.9502 135.058 25.3241 134.751 25.5729C134.462 25.8068 133.984 25.9235 133.316 25.9235C131.98 25.9234 131.311 25.433 131.311 24.4528V17.7106L135.212 16.0162V24.4528ZM133.235 10.1442C134.553 10.1442 135.212 10.6339 135.212 11.6139V12.9313L131.311 14.6256V11.6139C131.311 11.102 131.465 10.7288 131.772 10.4948C132.079 10.2607 132.567 10.1442 133.235 10.1442Z" fill="#101840" fill-opacity="0.8"/>
  <!-- O -->
  <path d="M145.442 25.924C143.871 25.924 142.534 25.6752 141.433 25.1778C140.331 24.6657 139.491 23.8317 138.913 22.6758C138.354 21.52 138.074 19.9544 138.074 17.9792C138.074 16.004 138.354 14.4457 138.913 13.3045C139.491 12.1633 140.331 11.3512 141.433 10.8684C142.534 10.3856 143.871 10.1442 145.442 10.1442C147.031 10.1442 148.367 10.3856 149.451 10.8684C150.553 11.3512 151.383 12.1633 151.943 13.3045C152.521 14.4457 152.81 16.004 152.81 17.9792C152.81 19.9544 152.521 21.52 151.943 22.6758C151.383 23.8317 150.553 24.6657 149.451 25.1778C148.367 25.6752 147.031 25.924 145.442 25.924ZM145.442 23.027C146.164 23.027 146.778 22.888 147.284 22.61C147.808 22.332 148.205 21.8272 148.476 21.0956C148.765 20.3641 148.909 19.3253 148.909 17.9792C148.909 16.6185 148.765 15.587 148.476 14.8847C148.205 14.1678 147.808 13.6849 147.284 13.4362C146.778 13.1728 146.164 13.0411 145.442 13.0411C144.738 13.0411 144.124 13.1728 143.6 13.4362C143.076 13.6849 142.67 14.1678 142.381 14.8847C142.11 15.587 141.974 16.6185 141.974 17.9792C141.974 19.3253 142.11 20.3641 142.381 21.0956C142.67 21.8272 143.076 22.332 143.6 22.61C144.124 22.888 144.738 23.027 145.442 23.027Z" fill="#101840" fill-opacity="0.8"/>
</svg>
